<svg width="14" height="14" viewBox="0 0 14 14" fill="none" xmlns="http://www.w3.org/2000/svg">
<g id="icons8-close 1">
<path id="Vector" d="M3.26634 1.86683C3.14693 1.86683 3.02739 1.91232 2.93639 2.00355L2.00306 2.93688C1.82059 3.11935 1.82059 3.41478 2.00306 3.59678L5.40645 7.00016L2.00306 10.4035C1.82059 10.586 1.82059 10.8814 2.00306 11.0634L2.93639 11.9968C3.11886 12.1792 3.41429 12.1792 3.59629 11.9968L6.99968 8.59339L10.4031 11.9968C10.5851 12.1792 10.881 12.1792 11.063 11.9968L11.9963 11.0634C12.1788 10.881 12.1788 10.5855 11.9963 10.4035L8.5929 7.00016L11.9963 3.59678C12.1788 3.41478 12.1788 3.11888 11.9963 2.93688L11.063 2.00355C10.8805 1.82108 10.5851 1.82108 10.4031 2.00355L6.99968 5.40693L3.59629 2.00355C3.50506 1.91232 3.38575 1.86683 3.26634 1.86683Z" fill="white"/>
</g>
</svg>
